<svg width="75" height="75" viewBox="0 0 75 75" fill="none" xmlns="http://www.w3.org/2000/svg">
<circle cx="37.5" cy="37.5" r="37.5" fill="#333333"/>
<circle cx="60.5" cy="36.5" r="2.5" fill="#FF6600"/>
<path d="M36.6875 42.5C36.6875 43.0417 36.6667 43.8958 36.625 45.0625C36.625 46.2292 36.6042 47.5417 36.5625 49C36.5208 50.4583 36.4583 51.9792 36.375 53.5625C36.3333 55.1042 36.25 56.5208 36.125 57.8125C36 59.0625 35.8542 60.1042 35.6875 60.9375C35.5625 61.7708 35.3958 62.1875 35.1875 62.1875C34.5625 62.1875 33.9583 61.75 33.375 60.875C32.8333 59.9583 32.2708 58.9792 31.6875 57.9375C31.5625 57.6875 31.4167 56.9583 31.25 55.75C31.125 54.5 30.9792 52.9375 30.8125 51.0625C30.6875 49.1875 30.5625 47.1042 30.4375 44.8125C30.3125 42.5208 30.1875 40.1875 30.0625 37.8125C29.9375 35.4375 29.8333 33.1042 29.75 30.8125C29.7083 28.5208 29.6667 26.4583 29.625 24.625C29.5833 22.7917 29.5833 21.2708 29.625 20.0625C29.6667 18.8125 29.75 18.0833 29.875 17.875C30.0417 17.5833 30.625 17.375 31.625 17.25C32.625 17.0833 33.8333 17 35.25 17C36.7083 17 38.2708 17.0417 39.9375 17.125C41.6042 17.2083 43.1458 17.3333 44.5625 17.5C46.0208 17.625 47.2292 17.7708 48.1875 17.9375C49.1875 18.1042 49.75 18.25 49.875 18.375C50.0417 18.5417 50.0625 19 49.9375 19.75C49.8542 20.4583 49.6875 21.25 49.4375 22.125C49.2292 22.9583 48.9583 23.75 48.625 24.5C48.3333 25.25 48.0833 25.7292 47.875 25.9375C47.6667 26.1458 46.6875 26.125 44.9375 25.875C43.2292 25.625 40.4792 25.3333 36.6875 25V35.4375C39.6042 35.6875 41.875 35.9167 43.5 36.125C45.1667 36.3333 46.0417 36.4792 46.125 36.5625C46.2917 36.7292 46.3542 37.0625 46.3125 37.5625C46.2708 38.0625 46.1667 38.6042 46 39.1875C45.8333 39.7292 45.625 40.25 45.375 40.75C45.125 41.2083 44.875 41.5208 44.625 41.6875C44.5 41.7708 43.75 41.8958 42.375 42.0625C41.0417 42.2292 39.1458 42.375 36.6875 42.5Z" fill="#FF6600"/>
<circle cx="15.5" cy="36.5" r="2.5" fill="#FF6600"/>
</svg>
